<svg width="34" height="25" viewBox="0 0 34 25" fill="none" xmlns="http://www.w3.org/2000/svg">
<path d="M18.498 4.40678C20.0651 3.88422 20.949 3.89574 22.5173 4.40678C22.5173 4.40678 22.3163 16.6655 22.5173 17.8712C22.7183 19.077 24.3079 21.495 28.7471 20.6847V4.40678C30.5501 3.94222 31.5668 3.92346 33.3692 4.40678V17.8712C32.3644 21.2876 30.5558 20.6847 28.7471 20.6847V22.8953C28.6327 24.0947 26.9386 25.9097 22.5173 24.1011C18.096 22.2924 18.498 17.8712 18.498 17.8712V4.40678Z" fill="white"/>
<path d="M0.0893249 20.3521C0.0893249 20.3521 -0.111656 8.29431 0.0893249 6.68669C0.290306 5.07906 1.71359 3.86616 4.30953 4.07418C4.28113 0.616761 5.20757 -0.243664 8.32878 0.0549439C10.2714 0.188937 14.2773 1.46174 14.7596 5.48098C15.2419 9.50022 14.9605 17.0698 14.7596 20.3521C13.3669 20.8372 12.3294 20.7966 10.5394 20.3521V6.68669C10.4054 5.48089 8.97186 3.27027 4.30953 4.07418V20.3521C2.86587 20.7558 1.95717 20.7842 0.0893249 20.3521Z" fill="#9E9E9E"/>
</svg>
